# xmcd
#
# Track frame offsets:
#	150
#	18720
#	38103
#	56516
#	82303
#	108132
#	132897
#	155616
#	172095
#
# Disc length: 2621 seconds
#
# Revision: 2
# Processed by: cddbd v1.5.2PL0 Copyright (c) Steve Scherf et al.
# Submitted via: EZCDDA 4.3.2
#
DISCID=760a3b09
DTITLE=Agathodaimon - Serpents Embrace
DYEAR=1900
DGENRE=
TTITLE0=Cellos For The Insatiable
TTITLE1=Serpents Embrace
TTITLE2=Light Reborn
TTITLE3=Faded Years
TTITLE4=Solitude
TTITLE5=Limbs Of A Stare
TTITLE6=The Darkness Inside
TTITLE7=Bitter End
TTITLE8=Feelings
EXTD=
EXTT0=
EXTT1=
EXTT2=
EXTT3=
EXTT4=
EXTT5=
EXTT6=
EXTT7=
EXTT8=
PLAYORDER=
